<svg width="907" height="920" viewBox="0 0 907 920" fill="none" xmlns="http://www.w3.org/2000/svg">
<path d="M847.682 280.39C832.211 245.453 799.595 219.513 753.37 205.368C713.564 193.19 663.303 189.705 607.627 195.207C561.427 167.422 508.571 152.587 453.454 152.587C372.502 152.587 296.394 184.561 239.151 242.627C195.876 286.519 167.313 341.35 155.945 400.974C114.887 439.548 84.0551 479.986 66.5829 518.272C46.3013 562.72 43.7594 604.678 59.2271 639.612C83.732 694.951 149.195 726.102 243.556 727.327C245.498 727.351 247.446 727.364 249.402 727.364C265.54 727.364 282.216 726.503 299.317 724.816C345.504 752.588 398.354 767.413 453.454 767.413C534.404 767.413 610.513 735.437 667.756 677.373C711.025 633.488 739.584 578.661 750.963 519.045C765.099 505.757 778.129 492.191 789.886 478.42C851.659 406.056 872.184 335.726 847.682 280.39ZM425.978 197.615C427.592 203.034 428.424 208.694 428.424 214.414C428.424 246.361 402.801 272.355 371.307 272.355C347.2 272.355 326.093 256.949 317.86 234.911C349.988 214.927 386.692 201.818 425.978 197.615ZM244.105 683.769C168.524 682.786 115.416 660.184 98.3982 621.761C88.0369 598.353 90.4393 569.689 105.556 536.567C115.5 514.777 130.751 491.89 150.518 468.908C152.715 547.684 183.983 621.419 239.15 677.372C241.293 679.548 243.473 681.675 245.671 683.776C245.152 683.775 244.627 683.779 244.105 683.769ZM453.454 723.858C426.78 723.858 401.032 719.755 376.787 712.151C430.109 700.199 485.636 681.407 540.437 656.437C595.203 631.487 645.921 601.896 690.133 569.428C649.063 660.46 558.424 723.858 453.454 723.858ZM711.012 496.992C660.344 542.184 595.493 583.604 522.841 616.705C450.242 649.783 376.694 671.421 309.765 679.836C239.641 632.523 193.327 551.648 193.327 460C193.327 380.803 227.912 309.648 282.56 261.242C299.404 293.923 333.209 315.918 371.307 315.918C426.479 315.918 471.366 270.382 471.366 214.415C471.366 208.449 470.838 202.513 469.818 196.683C605.657 205.283 713.582 320.085 713.582 460C713.582 472.556 712.691 484.901 711.012 496.992ZM757.415 449.901C757.081 450.296 756.729 450.691 756.389 451.085C754.195 372.313 722.922 298.581 667.756 242.626C665.613 240.449 663.439 238.323 661.242 236.22C691.305 236.496 718.303 240.137 740.966 247.074C775.416 257.614 798.141 274.827 808.507 298.235C825.521 336.659 806.898 391.942 757.415 449.901Z" fill="#FDE3F9"/>
<path d="M371.307 388.6C327.727 388.6 292.277 424.562 292.277 468.762C292.277 512.957 327.727 548.916 371.307 548.916C414.879 548.916 450.331 512.954 450.331 468.762C450.331 424.561 414.879 388.6 371.307 388.6ZM371.307 505.36C351.409 505.36 335.225 488.94 335.225 468.761C335.225 448.578 351.409 432.162 371.307 432.162C391.2 432.162 407.385 448.577 407.385 468.761C407.385 488.94 391.2 505.36 371.307 505.36Z" fill="#FDE3F9"/>
<path d="M601.538 393.126C565.182 393.126 535.606 423.125 535.606 460C535.606 496.875 565.182 526.874 601.538 526.874C637.89 526.874 667.461 496.875 667.461 460C667.461 423.125 637.89 393.126 601.538 393.126ZM601.538 483.312C588.866 483.312 578.554 472.852 578.554 460C578.554 447.145 588.867 436.688 601.538 436.688C614.209 436.688 624.517 447.147 624.517 460C624.517 472.854 614.21 483.312 601.538 483.312Z" fill="#FDE3F9"/>
</svg>
